<mxfile host="app.diagrams.net" agent="Mozilla/5.0 (Windows NT 10.0; Win64; x64) AppleWebKit/537.36 (KHTML, like Gecko) Chrome/137.0.0.0 Safari/537.36" version="27.2.0">
  <diagram name="Page-1" id="SAzWIpXchr2kspX2WtCq">
    <mxGraphModel dx="1042" dy="535" grid="1" gridSize="10" guides="1" tooltips="1" connect="1" arrows="1" fold="1" page="1" pageScale="1" pageWidth="850" pageHeight="1100" math="0" shadow="0">
      <root>
        <mxCell id="0" />
        <mxCell id="1" parent="0" />
        <mxCell id="Rp9OBQvMNJYsxnBJCaEl-1" value="START" style="ellipse;whiteSpace=wrap;html=1;" vertex="1" parent="1">
          <mxGeometry x="245" y="130" width="120" height="80" as="geometry" />
        </mxCell>
        <mxCell id="Rp9OBQvMNJYsxnBJCaEl-2" value="" style="endArrow=classic;html=1;rounded=0;" edge="1" parent="1">
          <mxGeometry width="50" height="50" relative="1" as="geometry">
            <mxPoint x="304.5" y="210" as="sourcePoint" />
            <mxPoint x="305" y="240" as="targetPoint" />
            <Array as="points">
              <mxPoint x="304.5" y="230" />
            </Array>
          </mxGeometry>
        </mxCell>
        <mxCell id="Rp9OBQvMNJYsxnBJCaEl-3" value="Someone comes to wake me up&lt;div&gt;(My Mom mainly)&lt;/div&gt;" style="shape=parallelogram;perimeter=parallelogramPerimeter;whiteSpace=wrap;html=1;fixedSize=1;" vertex="1" parent="1">
          <mxGeometry x="200" y="240" width="210" height="60" as="geometry" />
        </mxCell>
        <mxCell id="Rp9OBQvMNJYsxnBJCaEl-4" value="I go to the bathroom and freshen up then I pray" style="rounded=0;whiteSpace=wrap;html=1;" vertex="1" parent="1">
          <mxGeometry x="245" y="330" width="120" height="60" as="geometry" />
        </mxCell>
        <mxCell id="Rp9OBQvMNJYsxnBJCaEl-5" value="" style="endArrow=classic;html=1;rounded=0;entryX=0.5;entryY=0;entryDx=0;entryDy=0;" edge="1" parent="1" target="Rp9OBQvMNJYsxnBJCaEl-4">
          <mxGeometry width="50" height="50" relative="1" as="geometry">
            <mxPoint x="304.5" y="300" as="sourcePoint" />
            <mxPoint x="304.5" y="350" as="targetPoint" />
            <Array as="points" />
          </mxGeometry>
        </mxCell>
        <mxCell id="Rp9OBQvMNJYsxnBJCaEl-6" value="" style="endArrow=classic;html=1;rounded=0;" edge="1" parent="1">
          <mxGeometry width="50" height="50" relative="1" as="geometry">
            <mxPoint x="304.5" y="390" as="sourcePoint" />
            <mxPoint x="305" y="430" as="targetPoint" />
            <Array as="points">
              <mxPoint x="304.5" y="400" />
            </Array>
          </mxGeometry>
        </mxCell>
        <mxCell id="Rp9OBQvMNJYsxnBJCaEl-7" value="I have breakfast and&lt;div&gt;get ready for college&lt;/div&gt;" style="rounded=0;whiteSpace=wrap;html=1;" vertex="1" parent="1">
          <mxGeometry x="245" y="430" width="120" height="60" as="geometry" />
        </mxCell>
        <mxCell id="Rp9OBQvMNJYsxnBJCaEl-8" value="" style="endArrow=classic;html=1;rounded=0;" edge="1" parent="1">
          <mxGeometry width="50" height="50" relative="1" as="geometry">
            <mxPoint x="304.5" y="490" as="sourcePoint" />
            <mxPoint x="304.5" y="520" as="targetPoint" />
          </mxGeometry>
        </mxCell>
        <mxCell id="Rp9OBQvMNJYsxnBJCaEl-9" value="END" style="ellipse;whiteSpace=wrap;html=1;" vertex="1" parent="1">
          <mxGeometry x="245" y="870" width="120" height="80" as="geometry" />
        </mxCell>
        <mxCell id="Rp9OBQvMNJYsxnBJCaEl-10" value="" style="endArrow=classic;html=1;rounded=0;" edge="1" parent="1">
          <mxGeometry width="50" height="50" relative="1" as="geometry">
            <mxPoint x="304.5" y="840" as="sourcePoint" />
            <mxPoint x="304.5" y="870" as="targetPoint" />
            <Array as="points" />
          </mxGeometry>
        </mxCell>
        <mxCell id="Rp9OBQvMNJYsxnBJCaEl-11" value="Then I drive to college, study and drive back home" style="rounded=0;whiteSpace=wrap;html=1;" vertex="1" parent="1">
          <mxGeometry x="245" y="520" width="120" height="60" as="geometry" />
        </mxCell>
        <mxCell id="Rp9OBQvMNJYsxnBJCaEl-12" value="" style="endArrow=classic;html=1;rounded=0;" edge="1" parent="1">
          <mxGeometry width="50" height="50" relative="1" as="geometry">
            <mxPoint x="304.5" y="580" as="sourcePoint" />
            <mxPoint x="304.5" y="610" as="targetPoint" />
          </mxGeometry>
        </mxCell>
        <mxCell id="Rp9OBQvMNJYsxnBJCaEl-13" value="I have lunch then I pray and then I study" style="rounded=0;whiteSpace=wrap;html=1;" vertex="1" parent="1">
          <mxGeometry x="245" y="600" width="120" height="60" as="geometry" />
        </mxCell>
        <mxCell id="Rp9OBQvMNJYsxnBJCaEl-14" value="" style="endArrow=classic;html=1;rounded=0;" edge="1" parent="1">
          <mxGeometry width="50" height="50" relative="1" as="geometry">
            <mxPoint x="304.5" y="660" as="sourcePoint" />
            <mxPoint x="304.5" y="690" as="targetPoint" />
          </mxGeometry>
        </mxCell>
        <mxCell id="Rp9OBQvMNJYsxnBJCaEl-15" value="Pray again and then have dinner and use my phone" style="rounded=0;whiteSpace=wrap;html=1;" vertex="1" parent="1">
          <mxGeometry x="245" y="690" width="120" height="60" as="geometry" />
        </mxCell>
        <mxCell id="Rp9OBQvMNJYsxnBJCaEl-16" value="" style="endArrow=classic;html=1;rounded=0;" edge="1" parent="1">
          <mxGeometry width="50" height="50" relative="1" as="geometry">
            <mxPoint x="304.5" y="750" as="sourcePoint" />
            <mxPoint x="304.5" y="780" as="targetPoint" />
          </mxGeometry>
        </mxCell>
        <mxCell id="Rp9OBQvMNJYsxnBJCaEl-17" value="Pray again and again before sleep" style="rounded=0;whiteSpace=wrap;html=1;" vertex="1" parent="1">
          <mxGeometry x="245" y="780" width="120" height="60" as="geometry" />
        </mxCell>
      </root>
    </mxGraphModel>
  </diagram>
</mxfile>
